<svg width="79" height="83" viewBox="0 0 79 83" fill="none" xmlns="http://www.w3.org/2000/svg">
<path d="M57.5054 15.9882C56.4258 15.5406 55.3231 15.151 54.2021 14.821C49.4473 13.4054 44.4448 13.0224 39.5299 13.6975C39.1039 13.7559 38.6808 13.823 38.2606 13.8988C37.677 13.9981 37.0933 14.1148 36.5418 14.2432C33.6316 14.9068 30.8202 15.9466 28.1786 17.3364C22.9756 21.909 19.4448 26.7034 17.0899 31.5562C13.7224 38.5158 12.7857 45.5863 12.8295 52.2746C12.8295 52.8261 12.8295 53.3718 12.8586 53.9175C12.9695 57.6643 13.3547 61.2769 13.7545 64.6619C14.7901 66.5636 16.0015 68.3641 17.3729 70.0399C17.478 70.1712 17.5859 70.2996 17.6997 70.428C18.3067 71.1546 18.9516 71.8579 19.6198 72.532L19.7249 72.6399C20.218 73.1331 20.7287 73.6146 21.254 74.0785L21.6596 74.4316C23.5686 76.0747 25.6508 77.5052 27.8693 78.6979L27.5629 64.8019C25.3384 62.5754 23.577 59.9303 22.3803 57.0194C22.2257 56.6371 22.0885 56.249 21.9426 55.8522C21.8872 55.6917 21.8317 55.5312 21.7792 55.3678C20.8146 52.3868 20.4523 49.2439 20.7134 46.1216C20.9744 42.9994 21.8536 39.9602 23.2997 37.1808C24.7459 34.4014 26.7302 31.9373 29.1373 29.9317C31.5444 27.9261 34.3262 26.4191 37.321 25.4982C37.9046 25.3202 38.4882 25.1627 39.0718 25.0313C39.5066 24.9321 39.9472 24.8475 40.3879 24.7746C41.6694 24.5596 42.9666 24.4522 44.266 24.4536C47.3565 24.4521 50.4172 25.0579 53.2741 26.2365L66.21 21.197C63.5797 19.0431 60.6467 17.288 57.5054 15.9882ZM68.8188 23.549L60.9808 31.3753C63.1793 33.5662 64.9234 36.1699 66.1127 39.0369C67.302 41.9038 67.9133 44.9775 67.9113 48.0813C67.9113 48.7564 67.8821 49.4227 67.8237 50.0802C68.133 50.0627 68.4482 50.0539 68.7662 50.0539C73.406 50.0539 76.5517 51.5538 78.536 53.7541C79.4355 48.3081 79.0232 42.7261 77.3332 37.4714C75.6432 32.2167 72.7243 27.4408 68.8188 23.5402V23.549ZM58.0423 65.9984C53.9015 69.5672 50.1634 71.7266 44.2747 71.7266C41.185 71.7303 38.1248 71.1244 35.2695 69.9436L31.0441 80.1948C38.8334 83.4059 47.5244 83.6755 55.4977 80.9535V75.5201L56.5015 74.7322C59.6297 72.2781 63.4612 68.966 65.819 65.9984H58.0423Z" fill="#0C0A3C"/>
<path d="M58.1152 76.7982C64.214 72.0067 70.5988 66.8767 70.5988 62.2253C70.5988 60.5065 69.8225 59.4414 68.2643 59.4414C66.706 59.4414 65.7256 60.7108 65.8073 63.3721H58.0422C58.2874 55.7588 63.2393 52.689 68.7662 52.689C75.8892 52.689 78.714 56.7393 78.714 61.6533C78.714 67.8747 73.5548 72.9901 68.7662 76.305H78.9999V82.8153H58.1152V76.7982Z" fill="#2BD575"/>
<path d="M37.3268 25.4982C37.3469 21.7293 37.0845 17.9641 36.5418 14.2344C35.8754 9.40934 34.8086 4.64809 33.3523 0C33.5566 5.67568 18.2542 14.7509 8.32683 23.0529C-1.6005 31.3548 -0.891408 43.2752 1.54228 47.7341C3.97596 52.1929 10.0047 53.9642 10.0047 53.9642C9.38746 50.3203 9.36086 46.6007 9.92594 42.9484C12.3188 27.8998 24.5806 19.487 27.6095 17.6223C28.0122 17.3714 28.2515 17.2371 28.2836 17.2225L28.1756 17.3159C10.6671 32.7176 12.1087 50.6346 13.7603 64.6414C14.7959 66.5432 16.0073 68.3437 17.3787 70.0195C18.0869 70.8852 18.8358 71.7159 19.6257 72.5115C19.4243 71.0992 19.2638 69.5934 19.1529 68.041C18.8232 63.3516 18.403 59.1934 18.8173 55.8463C19.6616 55.7818 20.5009 55.6629 21.3298 55.4903C21.4874 55.4466 21.6391 55.3999 21.785 55.3532C38.1176 49.7329 37.3268 25.4982 37.3268 25.4982Z" fill="#2BD575"/>
</svg>
