<svg width="159" height="49" viewBox="0 0 159 49" fill="none" xmlns="http://www.w3.org/2000/svg">
<path d="M41.1003 33.8172V19.3379H35.7944V16.2725H50.1199V19.3379H44.7877V33.8172H41.1003Z" fill="#0C0A3C"/>
<path d="M49.6953 33.8172V20.8181H52.9311V22.377C54.0714 20.6294 55.3985 20.4747 56.8045 20.4747H57.2554V23.9892C56.94 23.9368 56.6208 23.9102 56.3011 23.9097C54.1784 23.9097 53.1433 24.9671 53.1433 27.0555V33.8172H49.6953Z" fill="#0C0A3C"/>
<path d="M65.7452 33.8172C65.6289 33.4391 65.5577 33.0488 65.5329 32.6541C64.7101 33.5551 63.3295 34.1667 61.5796 34.1667C58.6087 34.1667 57.229 32.7136 57.229 30.5989C57.229 26.8467 59.7499 26.4237 63.2251 25.9475C64.9496 25.7098 65.4267 25.3664 65.4267 24.4681C65.4267 23.6222 64.5777 23.1198 63.2251 23.1198C61.6594 23.1198 61.0226 23.8861 60.8639 25.0492H57.6535C57.707 22.3534 59.192 20.4773 63.3839 20.4773C67.5222 20.4773 68.9546 22.3272 68.9546 25.6041V33.8172H65.7452ZM65.5066 27.4479C65.161 27.7913 64.5514 27.9765 63.2778 28.2142C61.3147 28.5847 60.6779 29.1396 60.6779 30.2494C60.6779 31.2272 61.2621 31.7034 62.3497 31.7034C64.1268 31.7034 65.4531 30.4084 65.4794 28.8748L65.5066 27.4479Z" fill="#0C0A3C"/>
<path d="M82.2188 29.1169C81.8477 32.129 79.3812 34.1667 76.2235 34.1667C72.6685 34.1667 70.2283 31.8153 70.2283 27.1639C70.2283 22.5125 72.6685 20.4773 76.3297 20.4773C79.7251 20.4773 82.0311 22.4059 82.2451 25.4721H78.7672C78.5848 24.1177 77.6033 23.3313 76.3033 23.3313C74.8438 23.3313 73.65 24.2566 73.65 27.0844C73.65 29.9121 74.8438 31.2831 76.1972 31.2831C77.5506 31.2831 78.6111 30.5168 78.7409 29.116L82.2188 29.1169Z" fill="#0C0A3C"/>
<path d="M91.2384 33.8172L88.3736 27.9765L86.7018 29.6945V33.8172H83.2266V16.061H86.7018V25.7605L90.9998 20.8181H95.2179L90.8401 25.6032L95.1118 33.8224L91.2384 33.8172Z" fill="#0C0A3C"/>
<path d="M109.092 33.8172L109.012 32.0696C108.163 33.5551 106.147 34.4289 103.732 34.4289C98.8518 34.4289 95.7502 29.9094 95.7502 25.0204C95.7502 19.8403 98.7211 15.6905 104.425 15.6905C108.616 15.6905 111.853 18.1748 112.119 21.6902H108.405C108.219 20.0518 106.441 18.7305 104.425 18.7305C101.481 18.7305 99.5132 21.0025 99.5132 25.1785C99.5132 28.0622 100.972 31.3364 104.394 31.3364C106.808 31.3364 108.692 29.5127 108.692 27.3168H104.793V24.386H112.141V33.8172H109.092Z" fill="#2BD575"/>
<path d="M121.665 33.8172C121.549 33.4392 121.478 33.0488 121.453 32.6542C120.631 33.5533 119.252 34.1606 117.501 34.1606C114.529 34.1606 113.15 32.7075 113.15 30.5928C113.15 26.8406 115.67 26.4176 119.145 25.9414C120.87 25.7037 121.347 25.3603 121.347 24.462C121.347 23.6161 120.498 23.1137 119.145 23.1137C117.581 23.1137 116.944 23.88 116.784 25.0431H113.575C113.627 22.3473 115.113 20.4712 119.304 20.4712C123.443 20.4712 124.876 22.3211 124.876 25.598V33.8172H121.665ZM121.427 27.4479C121.082 27.7913 120.472 27.9765 119.198 28.2142C117.235 28.5847 116.599 29.1396 116.599 30.2494C116.599 31.2272 117.182 31.7034 118.266 31.7034C120.043 31.7034 121.369 30.4084 121.396 28.8748L121.427 27.4479Z" fill="#2BD575"/>
<path d="M125.936 33.8172V31.1782L132.596 23.5401H126.387V20.8181H137.001V23.5934L130.343 31.021H137.185V33.8172H125.936Z" fill="#2BD575"/>
<path d="M146.495 32.1028C146.018 33.2658 144.586 33.9526 142.968 33.9526C140.234 33.9526 138.192 32.1028 138.192 29.2488V20.8181H141.641V28.749C141.641 30.3612 142.383 31.1809 143.843 31.1809C145.408 31.1809 146.495 30.1497 146.495 28.749V20.8181H149.944V34.1667C149.944 37.8368 147.292 39.9812 143.949 39.9812C140.129 39.9812 138.192 37.8936 138.192 34.5372H141.402C141.402 36.0699 142.304 37.0215 144.108 37.0215C145.355 37.0215 146.495 35.938 146.495 34.22V32.1028Z" fill="#2BD575"/>
<path d="M26.3414 13.8065C26.0172 13.6725 25.686 13.5558 25.3494 13.457C23.9201 13.0331 22.4165 12.9184 20.9391 13.1206C20.811 13.138 20.6839 13.1581 20.5576 13.1808C20.3821 13.2106 20.2067 13.2455 20.0409 13.284C19.1661 13.4827 18.3211 13.794 17.527 14.2102C15.9631 15.5795 14.9018 17.0152 14.1939 18.4684C13.1817 20.5525 12.9001 22.6698 12.9133 24.6726C12.9133 24.8377 12.9133 25.0011 12.922 25.1645C12.9554 26.2865 13.0712 27.3683 13.1913 28.382C13.5026 28.9515 13.8668 29.4906 14.279 29.9925C14.3106 30.0318 14.343 30.0702 14.3772 30.1087C14.5597 30.3263 14.7535 30.5369 14.9544 30.7387L14.986 30.771C15.1342 30.9187 15.2877 31.0629 15.4456 31.2018L15.5675 31.3076C16.1413 31.7996 16.7672 32.228 17.4341 32.5851L17.342 28.4239C16.675 27.7571 16.147 26.9653 15.7885 26.0943C15.7421 25.9798 15.7008 25.8636 15.657 25.7448C15.6403 25.6967 15.6236 25.6487 15.6079 25.5997C15.3179 24.7071 15.209 23.7659 15.2875 22.8309C15.3659 21.896 15.6302 20.9859 16.0649 20.1536C16.4996 19.3213 17.0961 18.5834 17.8196 17.9828C18.5431 17.3822 19.3793 16.9309 20.2795 16.6552C20.4549 16.6019 20.6304 16.5547 20.8058 16.5154C20.9365 16.4857 21.0689 16.4603 21.2014 16.4385C21.5865 16.3735 21.9765 16.3408 22.3671 16.3406C23.2961 16.3402 24.2161 16.5216 25.0748 16.8745L28.9632 15.3654C28.1709 14.7203 27.2875 14.195 26.3414 13.8065ZM29.7421 16.0706L27.387 18.4168C28.048 19.0727 28.5725 19.8522 28.9303 20.7105C29.2881 21.5689 29.4722 22.4892 29.4719 23.4186C29.4719 23.6202 29.4632 23.8197 29.4456 24.0172C29.5386 24.012 29.6333 24.0093 29.7289 24.0093C31.1236 24.0093 32.0691 24.4585 32.6656 25.1174C32.936 23.4865 32.812 21.815 32.3041 20.2415C31.7961 18.6679 30.9187 17.2378 29.7447 16.0697L29.7421 16.0706ZM26.5028 28.7848C25.2617 29.8535 24.1328 30.4967 22.3671 30.4967C21.4383 30.4978 20.5185 30.3163 19.6602 29.9627L18.3901 33.0325C20.7315 33.9941 23.3439 34.0748 25.7406 33.2597V31.6326L26.0423 31.3967C26.9826 30.6618 28.1343 29.67 28.843 28.7813L26.5028 28.7848Z" fill="#0C0A3C"/>
<path d="M26.5272 32.0189C28.3605 30.5849 30.2796 29.0531 30.2796 27.655C30.2796 27.1403 30.0463 26.8222 29.5779 26.8222C29.1095 26.8222 28.8148 27.2014 28.8394 27.9984H26.5027C26.5772 25.7186 28.0684 24.7993 29.7262 24.7993C31.8673 24.7993 32.7163 26.013 32.7163 27.4837C32.7163 29.3467 31.1656 30.8794 29.7262 31.8721H32.8049V33.8172H26.5272V32.0189Z" fill="#2BD575"/>
<path d="M20.2759 16.6569C20.2819 15.5283 20.203 14.4008 20.0399 13.284C19.8396 11.8391 19.5189 10.4133 19.0812 9.02142C19.1426 10.721 14.5429 13.4386 11.5588 15.9247C8.57482 18.4107 8.78796 21.9803 9.5195 23.3155C10.251 24.6507 12.0632 25.1812 12.0632 25.1812C11.8777 24.09 11.8697 22.9762 12.0395 21.8824C12.7588 17.3761 16.4445 14.8569 17.355 14.2985C17.476 14.2233 17.548 14.1831 17.5576 14.1788L17.5252 14.2067C12.2623 18.8153 12.6947 24.178 13.1912 28.3785C13.5025 28.948 13.8666 29.4872 14.2789 29.989C14.4917 30.2482 14.7168 30.497 14.9543 30.7352C14.8937 30.3123 14.8455 29.8614 14.8122 29.3965C14.713 27.9923 14.5867 26.7479 14.7113 25.7457C14.9651 25.726 15.2173 25.6901 15.4665 25.6382C15.5139 25.6251 15.5595 25.6111 15.6033 25.5971C20.5136 23.915 20.2759 16.6569 20.2759 16.6569Z" fill="#2BD575"/>
</svg>
